solid ASCII
  facet normal 4.558019e-09 -9.892013e-01 -1.465634e-01
    outer loop
      vertex   -6.219977e+00 -1.434880e+00 0.000000e+00
      vertex   2.736029e+00 -1.434879e+00 0.000000e+00
      vertex   -1.734009e+00 -1.739248e+00 2.054276e+00
    endloop
  endfacet
  facet normal 6.906837e-01 -5.971752e-01 -4.078454e-01
    outer loop
      vertex   5.189687e+00 -4.471597e-08 2.054276e+00
      vertex   3.685908e+00 -1.739248e+00 2.054276e+00
      vertex   2.736029e+00 -1.434879e+00 0.000000e+00
    endloop
  endfacet
  facet normal 6.906839e-01 5.971748e-01 -4.078455e-01
    outer loop
      vertex   3.685909e+00 1.739248e+00 2.054276e+00
      vertex   5.189687e+00 -4.471597e-08 2.054276e+00
      vertex   3.976647e+00 3.343052e-08 0.000000e+00
    endloop
  endfacet
  facet normal -1.390787e-08 9.892013e-01 -1.465635e-01
    outer loop
      vertex   -1.734009e+00 1.739248e+00 2.054276e+00
      vertex   2.736029e+00 1.434880e+00 0.000000e+00
      vertex   -6.219977e+00 1.434879e+00 0.000000e+00
    endloop
  endfacet
  facet normal -6.906837e-01 5.971750e-01 -4.078456e-01
    outer loop
      vertex   -8.673635e+00 -2.841239e-09 2.054276e+00
      vertex   -7.169856e+00 1.739248e+00 2.054276e+00
      vertex   -6.219977e+00 1.434879e+00 0.000000e+00
    endloop
  endfacet
  facet normal -6.906836e-01 -5.971751e-01 -4.078457e-01
    outer loop
      vertex   -7.169856e+00 -1.739248e+00 2.054276e+00
      vertex   -8.673635e+00 -2.841239e-09 2.054276e+00
      vertex   -7.460594e+00 -5.708204e-08 0.000000e+00
    endloop
  endfacet
  facet normal -0.000000e+00 0.000000e+00 -1.000000e+00
    outer loop
      vertex   2.736029e+00 -1.434879e+00 0.000000e+00
      vertex   -6.219977e+00 -1.434880e+00 0.000000e+00
      vertex   3.976647e+00 3.343052e-08 0.000000e+00
    endloop
  endfacet
  facet normal -0.000000e+00 0.000000e+00 -1.000000e+00
    outer loop
      vertex   3.976647e+00 3.343052e-08 0.000000e+00
      vertex   -6.219977e+00 -1.434880e+00 0.000000e+00
      vertex   2.736029e+00 1.434880e+00 0.000000e+00
    endloop
  endfacet
  facet normal 0.000000e+00 0.000000e+00 -1.000000e+00
    outer loop
      vertex   2.736029e+00 1.434880e+00 0.000000e+00
      vertex   -6.219977e+00 -1.434880e+00 0.000000e+00
      vertex   -7.460594e+00 -5.708204e-08 0.000000e+00
    endloop
  endfacet
  facet normal 0.000000e+00 0.000000e+00 -1.000000e+00
    outer loop
      vertex   2.736029e+00 1.434880e+00 0.000000e+00
      vertex   -7.460594e+00 -5.708204e-08 0.000000e+00
      vertex   -6.219977e+00 1.434879e+00 0.000000e+00
    endloop
  endfacet
  facet normal 9.122525e-09 -9.892013e-01 -1.465634e-01
    outer loop
      vertex   2.736029e+00 -1.434879e+00 0.000000e+00
      vertex   1.734009e+00 -1.739248e+00 2.054276e+00
      vertex   -1.734009e+00 -1.739248e+00 2.054276e+00
    endloop
  endfacet
  facet normal -2.184556e-08 9.892013e-01 -1.465634e-01
    outer loop
      vertex   1.734008e+00 1.739248e+00 2.054276e+00
      vertex   3.685909e+00 1.739248e+00 2.054276e+00
      vertex   2.736029e+00 1.434880e+00 0.000000e+00
    endloop
  endfacet
  facet normal 0.000000e+00 -0.000000e+00 1.000000e+00
    outer loop
      vertex   1.100788e+00 1.095726e+00 3.544136e+00
      vertex   1.469643e+00 1.474883e+00 3.544136e+00
      vertex   3.242700e-01 1.095726e+00 3.544136e+00
    endloop
  endfacet
  facet normal 0.000000e+00 -0.000000e+00 1.000000e+00
    outer loop
      vertex   3.242700e-01 1.095726e+00 3.544136e+00
      vertex   1.469643e+00 1.474883e+00 3.544136e+00
      vertex   -1.469643e+00 1.474883e+00 3.544136e+00
    endloop
  endfacet
  facet normal 0.000000e+00 0.000000e+00 1.000000e+00
    outer loop
      vertex   3.242700e-01 1.095726e+00 3.544136e+00
      vertex   -1.469643e+00 1.474883e+00 3.544136e+00
      vertex   3.242700e-01 3.791561e-01 3.544136e+00
    endloop
  endfacet
  facet normal 0.000000e+00 0.000000e+00 1.000000e+00
    outer loop
      vertex   3.242700e-01 3.791561e-01 3.544136e+00
      vertex   -1.469643e+00 1.474883e+00 3.544136e+00
      vertex   -1.469644e+00 -6.533831e-08 3.544136e+00
    endloop
  endfacet
  facet normal 0.000000e+00 0.000000e+00 1.000000e+00
    outer loop
      vertex   3.242700e-01 3.791561e-01 3.544136e+00
      vertex   -1.469644e+00 -6.533831e-08 3.544136e+00
      vertex   -1.469644e+00 -1.474882e+00 3.544136e+00
    endloop
  endfacet
  facet normal 0.000000e+00 0.000000e+00 1.000000e+00
    outer loop
      vertex   1.469643e+00 1.474883e+00 3.544136e+00
      vertex   1.100788e+00 1.095726e+00 3.544136e+00
      vertex   1.469643e+00 1.961440e-07 3.544136e+00
    endloop
  endfacet
  facet normal 0.000000e+00 0.000000e+00 1.000000e+00
    outer loop
      vertex   1.469643e+00 1.961440e-07 3.544136e+00
      vertex   1.100788e+00 1.095726e+00 3.544136e+00
      vertex   1.100788e+00 3.791561e-01 3.544136e+00
    endloop
  endfacet
  facet normal 0.000000e+00 0.000000e+00 1.000000e+00
    outer loop
      vertex   1.469643e+00 1.961440e-07 3.544136e+00
      vertex   1.100788e+00 3.791561e-01 3.544136e+00
      vertex   3.242700e-01 3.791561e-01 3.544136e+00
    endloop
  endfacet
  facet normal 0.000000e+00 0.000000e+00 1.000000e+00
    outer loop
      vertex   -1.469644e+00 -1.474882e+00 3.544136e+00
      vertex   1.469642e+00 -1.474882e+00 3.544136e+00
      vertex   3.242700e-01 3.791561e-01 3.544136e+00
    endloop
  endfacet
  facet normal 0.000000e+00 0.000000e+00 1.000000e+00
    outer loop
      vertex   3.242700e-01 3.791561e-01 3.544136e+00
      vertex   1.469642e+00 -1.474882e+00 3.544136e+00
      vertex   1.469643e+00 1.961440e-07 3.544136e+00
    endloop
  endfacet
  facet normal -8.025311e-08 -9.892013e-01 -1.465634e-01
    outer loop
      vertex   2.736029e+00 -1.434879e+00 0.000000e+00
      vertex   3.685908e+00 -1.739248e+00 2.054276e+00
      vertex   1.734009e+00 -1.739248e+00 2.054276e+00
    endloop
  endfacet
  facet normal 4.406568e-08 9.892013e-01 -1.465634e-01
    outer loop
      vertex   -1.734009e+00 1.739248e+00 2.054276e+00
      vertex   1.734008e+00 1.739248e+00 2.054276e+00
      vertex   2.736029e+00 1.434880e+00 0.000000e+00
    endloop
  endfacet
  facet normal 0.000000e+00 -0.000000e+00 1.000000e+00
    outer loop
      vertex   1.469643e+00 1.474883e+00 2.054276e+00
      vertex   1.734008e+00 1.739248e+00 2.054276e+00
      vertex   -1.469643e+00 1.474883e+00 2.054276e+00
    endloop
  endfacet
  facet normal 0.000000e+00 -0.000000e+00 1.000000e+00
    outer loop
      vertex   -1.469643e+00 1.474883e+00 2.054276e+00
      vertex   1.734008e+00 1.739248e+00 2.054276e+00
      vertex   -1.734009e+00 1.739248e+00 2.054276e+00
    endloop
  endfacet
  facet normal 0.000000e+00 0.000000e+00 1.000000e+00
    outer loop
      vertex   -1.469643e+00 1.474883e+00 2.054276e+00
      vertex   -1.734009e+00 1.739248e+00 2.054276e+00
      vertex   -8.673635e+00 -2.841239e-09 2.054276e+00
    endloop
  endfacet
  facet normal 0.000000e+00 0.000000e+00 1.000000e+00
    outer loop
      vertex   -8.673635e+00 -2.841239e-09 2.054276e+00
      vertex   -1.734009e+00 1.739248e+00 2.054276e+00
      vertex   -7.169856e+00 1.739248e+00 2.054276e+00
    endloop
  endfacet
  facet normal -0.000000e+00 0.000000e+00 1.000000e+00
    outer loop
      vertex   1.734008e+00 1.739248e+00 2.054276e+00
      vertex   1.469643e+00 1.474883e+00 2.054276e+00
      vertex   3.685909e+00 1.739248e+00 2.054276e+00
    endloop
  endfacet
  facet normal 0.000000e+00 0.000000e+00 1.000000e+00
    outer loop
      vertex   3.685909e+00 1.739248e+00 2.054276e+00
      vertex   1.469643e+00 1.474883e+00 2.054276e+00
      vertex   1.469643e+00 1.961440e-07 2.054276e+00
    endloop
  endfacet
  facet normal 0.000000e+00 0.000000e+00 1.000000e+00
    outer loop
      vertex   3.685909e+00 1.739248e+00 2.054276e+00
      vertex   1.469643e+00 1.961440e-07 2.054276e+00
      vertex   5.189687e+00 -4.471597e-08 2.054276e+00
    endloop
  endfacet
  facet normal 0.000000e+00 0.000000e+00 1.000000e+00
    outer loop
      vertex   5.189687e+00 -4.471597e-08 2.054276e+00
      vertex   1.469643e+00 1.961440e-07 2.054276e+00
      vertex   1.469642e+00 -1.474882e+00 2.054276e+00
    endloop
  endfacet
  facet normal 0.000000e+00 0.000000e+00 1.000000e+00
    outer loop
      vertex   5.189687e+00 -4.471597e-08 2.054276e+00
      vertex   1.469642e+00 -1.474882e+00 2.054276e+00
      vertex   3.685908e+00 -1.739248e+00 2.054276e+00
    endloop
  endfacet
  facet normal 0.000000e+00 0.000000e+00 1.000000e+00
    outer loop
      vertex   3.685908e+00 -1.739248e+00 2.054276e+00
      vertex   1.469642e+00 -1.474882e+00 2.054276e+00
      vertex   1.734009e+00 -1.739248e+00 2.054276e+00
    endloop
  endfacet
  facet normal 0.000000e+00 0.000000e+00 1.000000e+00
    outer loop
      vertex   1.734009e+00 -1.739248e+00 2.054276e+00
      vertex   1.469642e+00 -1.474882e+00 2.054276e+00
      vertex   -1.734009e+00 -1.739248e+00 2.054276e+00
    endloop
  endfacet
  facet normal 0.000000e+00 0.000000e+00 1.000000e+00
    outer loop
      vertex   -1.734009e+00 -1.739248e+00 2.054276e+00
      vertex   1.469642e+00 -1.474882e+00 2.054276e+00
      vertex   -1.469644e+00 -1.474882e+00 2.054276e+00
    endloop
  endfacet
  facet normal 0.000000e+00 -0.000000e+00 1.000000e+00
    outer loop
      vertex   -1.734009e+00 -1.739248e+00 2.054276e+00
      vertex   -1.469644e+00 -1.474882e+00 2.054276e+00
      vertex   -7.169856e+00 -1.739248e+00 2.054276e+00
    endloop
  endfacet
  facet normal 0.000000e+00 0.000000e+00 1.000000e+00
    outer loop
      vertex   -7.169856e+00 -1.739248e+00 2.054276e+00
      vertex   -1.469644e+00 -1.474882e+00 2.054276e+00
      vertex   -1.469644e+00 -6.533831e-08 2.054276e+00
    endloop
  endfacet
  facet normal 0.000000e+00 -0.000000e+00 1.000000e+00
    outer loop
      vertex   -7.169856e+00 -1.739248e+00 2.054276e+00
      vertex   -1.469644e+00 -6.533831e-08 2.054276e+00
      vertex   -8.673635e+00 -2.841239e-09 2.054276e+00
    endloop
  endfacet
  facet normal -0.000000e+00 0.000000e+00 1.000000e+00
    outer loop
      vertex   -8.673635e+00 -2.841239e-09 2.054276e+00
      vertex   -1.469644e+00 -6.533831e-08 2.054276e+00
      vertex   -1.469643e+00 1.474883e+00 2.054276e+00
    endloop
  endfacet
  facet normal 0.000000e+00 -0.000000e+00 1.000000e+00
    outer loop
      vertex   1.100788e+00 3.791561e-01 4.467934e+00
      vertex   1.100788e+00 1.095726e+00 4.467934e+00
      vertex   3.242700e-01 3.791561e-01 4.467934e+00
    endloop
  endfacet
  facet normal 0.000000e+00 0.000000e+00 1.000000e+00
    outer loop
      vertex   3.242700e-01 3.791561e-01 4.467934e+00
      vertex   1.100788e+00 1.095726e+00 4.467934e+00
      vertex   3.242700e-01 1.095726e+00 4.467934e+00
    endloop
  endfacet
  facet normal 1.000000e+00 -3.670480e-07 0.000000e+00
    outer loop
      vertex   1.469642e+00 -1.474882e+00 3.544136e+00
      vertex   1.469642e+00 -1.474882e+00 2.054276e+00
      vertex   1.469643e+00 1.961440e-07 3.544136e+00
    endloop
  endfacet
  facet normal 1.000000e+00 -3.670480e-07 0.000000e+00
    outer loop
      vertex   1.469643e+00 1.961440e-07 3.544136e+00
      vertex   1.469642e+00 -1.474882e+00 2.054276e+00
      vertex   1.469643e+00 1.961440e-07 2.054276e+00
    endloop
  endfacet
  facet normal -1.000000e+00 -2.093071e-08 -0.000000e+00
    outer loop
      vertex   -1.469644e+00 -6.533831e-08 3.544136e+00
      vertex   -1.469644e+00 -6.533831e-08 2.054276e+00
      vertex   -1.469644e+00 -1.474882e+00 3.544136e+00
    endloop
  endfacet
  facet normal -1.000000e+00 -2.093071e-08 -0.000000e+00
    outer loop
      vertex   -1.469644e+00 -1.474882e+00 3.544136e+00
      vertex   -1.469644e+00 -6.533831e-08 2.054276e+00
      vertex   -1.469644e+00 -1.474882e+00 2.054276e+00
    endloop
  endfacet
  facet normal 0.000000e+00 -1.000000e+00 0.000000e+00
    outer loop
      vertex   -1.469644e+00 -1.474882e+00 3.544136e+00
      vertex   -1.469644e+00 -1.474882e+00 2.054276e+00
      vertex   1.469642e+00 -1.474882e+00 3.544136e+00
    endloop
  endfacet
  facet normal 0.000000e+00 -1.000000e+00 -0.000000e+00
    outer loop
      vertex   1.469642e+00 -1.474882e+00 3.544136e+00
      vertex   -1.469644e+00 -1.474882e+00 2.054276e+00
      vertex   1.469642e+00 -1.474882e+00 2.054276e+00
    endloop
  endfacet
  facet normal -1.000000e+00 3.481549e-07 0.000000e+00
    outer loop
      vertex   -1.469643e+00 1.474883e+00 3.544136e+00
      vertex   -1.469643e+00 1.474883e+00 2.054276e+00
      vertex   -1.469644e+00 -6.533831e-08 3.544136e+00
    endloop
  endfacet
  facet normal -1.000000e+00 3.481549e-07 0.000000e+00
    outer loop
      vertex   -1.469644e+00 -6.533831e-08 3.544136e+00
      vertex   -1.469643e+00 1.474883e+00 2.054276e+00
      vertex   -1.469644e+00 -6.533831e-08 2.054276e+00
    endloop
  endfacet
  facet normal 1.000000e+00 3.982378e-08 0.000000e+00
    outer loop
      vertex   1.469643e+00 1.961440e-07 3.544136e+00
      vertex   1.469643e+00 1.961440e-07 2.054276e+00
      vertex   1.469643e+00 1.474883e+00 3.544136e+00
    endloop
  endfacet
  facet normal 1.000000e+00 3.982378e-08 0.000000e+00
    outer loop
      vertex   1.469643e+00 1.474883e+00 3.544136e+00
      vertex   1.469643e+00 1.961440e-07 2.054276e+00
      vertex   1.469643e+00 1.474883e+00 2.054276e+00
    endloop
  endfacet
  facet normal 0.000000e+00 1.000000e+00 0.000000e+00
    outer loop
      vertex   1.469643e+00 1.474883e+00 3.544136e+00
      vertex   1.469643e+00 1.474883e+00 2.054276e+00
      vertex   -1.469643e+00 1.474883e+00 3.544136e+00
    endloop
  endfacet
  facet normal 0.000000e+00 1.000000e+00 0.000000e+00
    outer loop
      vertex   -1.469643e+00 1.474883e+00 3.544136e+00
      vertex   1.469643e+00 1.474883e+00 2.054276e+00
      vertex   -1.469643e+00 1.474883e+00 2.054276e+00
    endloop
  endfacet
  facet normal -1.000000e+00 7.904350e-08 0.000000e+00
    outer loop
      vertex   3.242700e-01 1.095726e+00 4.467934e+00
      vertex   3.242700e-01 1.095726e+00 3.544136e+00
      vertex   3.242700e-01 3.791561e-01 4.467934e+00
    endloop
  endfacet
  facet normal -1.000000e+00 7.904350e-08 0.000000e+00
    outer loop
      vertex   3.242700e-01 3.791561e-01 4.467934e+00
      vertex   3.242700e-01 1.095726e+00 3.544136e+00
      vertex   3.242700e-01 3.791561e-01 3.544136e+00
    endloop
  endfacet
  facet normal -3.502893e-09 -1.000000e+00 -0.000000e+00
    outer loop
      vertex   3.242700e-01 3.791561e-01 4.467934e+00
      vertex   3.242700e-01 3.791561e-01 3.544136e+00
      vertex   1.100788e+00 3.791561e-01 4.467934e+00
    endloop
  endfacet
  facet normal -3.502893e-09 -1.000000e+00 -0.000000e+00
    outer loop
      vertex   1.100788e+00 3.791561e-01 4.467934e+00
      vertex   3.242700e-01 3.791561e-01 3.544136e+00
      vertex   1.100788e+00 3.791561e-01 3.544136e+00
    endloop
  endfacet
  facet normal 1.000000e+00 -4.015675e-08 0.000000e+00
    outer loop
      vertex   1.100788e+00 3.791561e-01 4.467934e+00
      vertex   1.100788e+00 3.791561e-01 3.544136e+00
      vertex   1.100788e+00 1.095726e+00 4.467934e+00
    endloop
  endfacet
  facet normal 1.000000e+00 -4.015675e-08 0.000000e+00
    outer loop
      vertex   1.100788e+00 1.095726e+00 4.467934e+00
      vertex   1.100788e+00 3.791561e-01 3.544136e+00
      vertex   1.100788e+00 1.095726e+00 3.544136e+00
    endloop
  endfacet
  facet normal -1.896955e-07 1.000000e+00 0.000000e+00
    outer loop
      vertex   1.100788e+00 1.095726e+00 4.467934e+00
      vertex   1.100788e+00 1.095726e+00 3.544136e+00
      vertex   3.242700e-01 1.095726e+00 4.467934e+00
    endloop
  endfacet
  facet normal -1.896955e-07 1.000000e+00 0.000000e+00
    outer loop
      vertex   3.242700e-01 1.095726e+00 4.467934e+00
      vertex   1.100788e+00 1.095726e+00 3.544136e+00
      vertex   3.242700e-01 1.095726e+00 3.544136e+00
    endloop
  endfacet
  facet normal -1.923807e-08 -9.892013e-01 -1.465633e-01
    outer loop
      vertex   -7.169856e+00 -1.739248e+00 2.054276e+00
      vertex   -6.219977e+00 -1.434880e+00 0.000000e+00
      vertex   -1.734009e+00 -1.739248e+00 2.054276e+00
    endloop
  endfacet
  facet normal 6.906837e-01 -5.971751e-01 -4.078454e-01
    outer loop
      vertex   3.976647e+00 3.343052e-08 0.000000e+00
      vertex   5.189687e+00 -4.471597e-08 2.054276e+00
      vertex   2.736029e+00 -1.434879e+00 0.000000e+00
    endloop
  endfacet
  facet normal 6.906835e-01 5.971751e-01 -4.078458e-01
    outer loop
      vertex   2.736029e+00 1.434880e+00 0.000000e+00
      vertex   3.685909e+00 1.739248e+00 2.054276e+00
      vertex   3.976647e+00 3.343052e-08 0.000000e+00
    endloop
  endfacet
  facet normal -1.313336e-08 9.892013e-01 -1.465635e-01
    outer loop
      vertex   -7.169856e+00 1.739248e+00 2.054276e+00
      vertex   -1.734009e+00 1.739248e+00 2.054276e+00
      vertex   -6.219977e+00 1.434879e+00 0.000000e+00
    endloop
  endfacet
  facet normal -6.906837e-01 5.971749e-01 -4.078458e-01
    outer loop
      vertex   -7.460594e+00 -5.708204e-08 0.000000e+00
      vertex   -8.673635e+00 -2.841239e-09 2.054276e+00
      vertex   -6.219977e+00 1.434879e+00 0.000000e+00
    endloop
  endfacet
  facet normal -6.906837e-01 -5.971750e-01 -4.078456e-01
    outer loop
      vertex   -6.219977e+00 -1.434880e+00 0.000000e+00
      vertex   -7.169856e+00 -1.739248e+00 2.054276e+00
      vertex   -7.460594e+00 -5.708204e-08 0.000000e+00
    endloop
  endfacet
endsolid
